<svg clip-rule="evenodd" fill-rule="evenodd" stroke-linejoin="round" stroke-miterlimit="2" viewBox="0 0 560 400" xmlns="http://www.w3.org/2000/svg"><path d="m5.849 55c7.086 0 7.873-3.929 7.873-3.929l2.024 3.929h3.937v-35.357h-7.873v24.806c0 2.598-1.046 2.69-1.726 2.694h-2.211v-39.286h3.937v7.857h7.873v-11.449c0-2.581-1.687-4.265-4.274-4.265h-11.135c-2.587 0-4.274 1.684-4.274 4.265v46.47c0 2.581 1.687 4.265 4.274 4.265zm27.443 0c4.469 0 5.818-3.515 5.95-3.895l.012-.034s1.124 3.929 5.848 3.929h3.937c3.374 0 5.961-2.245 5.961-5.724v-49.276h-7.873v45.347c0 1.684-.675 1.796-1.575 1.796h-.787c-.9 0-1.575-.112-1.575-1.796v-45.347h-7.873v45.347c0 1.684-.675 1.796-1.575 1.796h-.787c-.9 0-1.575-.112-1.575-1.796v-45.347h-7.873v49.276c0 3.479 2.587 5.724 5.849 5.724z" fill-rule="nonzero" transform="matrix(4.90909 0 0 4.90909 145 65)"/></svg>