<svg width="75" height="13" viewBox="0 0 75 13" fill="none" xmlns="http://www.w3.org/2000/svg">
<path d="M71.0575 12.3064C70.0977 12.3064 69.2807 12.095 68.6065 11.6722C67.9437 11.238 67.4924 10.6038 67.2524 9.76968L68.6579 9.27262C68.9436 10.4381 69.7263 11.0209 71.0061 11.0209C71.6574 11.0209 72.1716 10.9009 72.5487 10.6609C72.9372 10.4096 73.1314 10.0611 73.1314 9.61542C73.1314 9.3069 73.04 9.06694 72.8572 8.89554C72.6744 8.71272 72.4115 8.56989 72.0687 8.46705C71.726 8.36421 71.2118 8.24423 70.5262 8.10711C68.5494 7.70718 67.561 6.89018 67.561 5.65611C67.561 5.14191 67.7095 4.69627 68.0066 4.3192C68.3151 3.94212 68.7208 3.65646 69.2235 3.4622C69.7377 3.25653 70.2919 3.15369 70.8861 3.15369C71.7202 3.15369 72.4458 3.3308 73.0629 3.68502C73.6799 4.02782 74.0741 4.50202 74.2455 5.10763L72.8743 5.53613C72.7943 5.20476 72.5887 4.94195 72.2573 4.74769C71.9259 4.54202 71.5031 4.43918 70.9889 4.43918C70.4062 4.43918 69.9434 4.54773 69.6006 4.76483C69.2692 4.97051 69.1036 5.23904 69.1036 5.57041C69.1036 5.82179 69.195 6.02747 69.3778 6.18744C69.5606 6.34741 69.8234 6.48453 70.1662 6.5988C70.5204 6.70164 71.0289 6.82733 71.6917 6.97588C72.3087 7.113 72.8229 7.26725 73.2343 7.43865C73.6456 7.59863 73.9884 7.8443 74.2626 8.17567C74.5369 8.50704 74.674 8.94696 74.674 9.49544C74.674 10.3753 74.3426 11.0666 73.6799 11.5694C73.0172 12.0607 72.143 12.3064 71.0575 12.3064Z" fill="#BBBBBB"/>
<path d="M59.1156 9.18697H60.5725V10.6439H59.1156V12.1007H57.6587V0H59.1156V4.8163H60.5725V6.27319H59.1156V9.18697ZM64.069 3.35941V4.8163H60.5725V3.35941H64.069ZM64.069 4.8163H65.5259V10.6439H64.069V4.8163ZM60.5725 12.1007V10.6439H64.069V12.1007H60.5725Z" fill="#BBBBBB"/>
<path d="M55.244 10.8152H56.0153V12.1007H53.7871V10.4381C53.49 10.998 53.0729 11.438 52.5359 11.7579C51.9988 12.0778 51.3761 12.2378 50.6676 12.2378C49.8563 12.2378 49.1993 12.015 48.6965 11.5694C48.1938 11.1123 47.9424 10.4895 47.9424 9.70112C47.9424 8.6613 48.4223 7.92428 49.3821 7.49007C50.3534 7.05586 51.8217 6.81019 53.7871 6.75306V6.32456C53.7871 5.67325 53.5985 5.19904 53.2215 4.90195C52.8444 4.59344 52.3416 4.43918 51.7132 4.43918C51.119 4.43918 50.6733 4.58201 50.3762 4.86767C50.0792 5.15334 49.8449 5.55898 49.6735 6.0846L48.3023 5.62183C48.4851 4.8791 48.8851 4.28492 49.5021 3.83928C50.1191 3.38222 50.8904 3.15369 51.816 3.15369C52.8672 3.15369 53.7014 3.42792 54.3184 3.9764C54.9355 4.52488 55.244 5.35902 55.244 6.47882V10.8152ZM50.9761 10.9523C51.5132 10.9523 51.9874 10.8152 52.3988 10.541C52.8101 10.2667 53.1358 9.90108 53.3757 9.44402C53.6157 8.97553 53.7528 8.47847 53.7871 7.95285C52.8044 7.9757 52.0045 8.03284 51.3875 8.12425C50.7819 8.21566 50.302 8.38706 49.9478 8.63844C49.605 8.8784 49.4336 9.23263 49.4336 9.70112C49.4336 10.0896 49.5764 10.3981 49.862 10.6267C50.1477 10.8438 50.5191 10.9523 50.9761 10.9523Z" fill="#BBBBBB"/>
<path d="M46.6201 12.1007H38.5815V0H40.2098V10.7296H46.6201V12.1007Z" fill="#BBBBBB"/>
<path d="M32.3995 3.15369C33.2451 3.15369 33.9764 3.36508 34.5934 3.78786C35.2104 4.21065 35.6732 4.79911 35.9817 5.55327C36.2903 6.30742 36.4331 7.17013 36.4102 8.14139H29.8114C29.8799 9.11265 30.1656 9.83823 30.6684 10.3182C31.1826 10.7866 31.851 11.0209 32.6737 11.0209C33.2793 11.0209 33.7478 10.8781 34.0792 10.5924C34.4106 10.3067 34.6734 9.8668 34.8676 9.27262L36.2731 9.76968C35.9646 10.581 35.5247 11.2094 34.9533 11.6551C34.382 12.0893 33.6107 12.3064 32.6395 12.3064C31.2568 12.3064 30.1942 11.8893 29.4514 11.0552C28.7201 10.221 28.3545 9.10122 28.3545 7.69575C28.3545 6.87304 28.5259 6.11317 28.8687 5.41615C29.2115 4.71913 29.6857 4.17065 30.2913 3.77072C30.9083 3.35936 31.6111 3.15369 32.3995 3.15369ZM32.3995 4.43918C31.7596 4.43918 31.2054 4.66199 30.7369 5.10763C30.2799 5.54184 29.9885 6.14174 29.8628 6.90732H34.9019C34.7877 6.11888 34.5077 5.51327 34.0621 5.09049C33.6279 4.65628 33.0737 4.43918 32.3995 4.43918Z" fill="#BBBBBB"/>
<path d="M24.2238 10.6438H22.7669V4.81622H21.3101V3.35933H22.7669V0.445557H24.2238V3.35933H27.1376V4.81622H24.2238V10.6438ZM27.1376 12.1007H24.2238V10.6438H27.1376V12.1007Z" fill="#BBBBBB"/>
<path d="M19.4295 1.71399H17.9727V0H19.4295V1.71399ZM19.4295 12.1007H17.9727V3.35941H19.4295V12.1007Z" fill="#BBBBBB"/>
<path d="M15.2672 3.18799C15.7471 3.18799 16.1871 3.26797 16.587 3.42795L16.3813 4.74772C16.0042 4.56489 15.6214 4.47348 15.2329 4.47348C14.7759 4.47348 14.3645 4.62774 13.9989 4.93626C13.6332 5.24477 13.3475 5.67898 13.1419 6.23889C12.9362 6.79879 12.8334 7.44439 12.8334 8.17569V12.1007H11.3765V3.35939H12.7819V5.00481C13.319 3.7936 14.1474 3.18799 15.2672 3.18799Z" fill="#BBBBBB"/>
<path d="M7.19875 5.70758C7.94147 5.86755 8.5128 6.20463 8.91273 6.71883C9.31266 7.2216 9.51263 7.89005 9.51263 8.72419C9.51263 9.38693 9.34694 9.9754 9.01557 10.4896C8.69563 11.0038 8.24999 11.4037 7.67866 11.6894C7.10733 11.9636 6.45602 12.1007 5.72472 12.1007H0V0H5.38192C6.58171 0 7.48441 0.262811 8.09002 0.788434C8.69563 1.31406 8.99843 2.09106 8.99843 3.11946C8.99843 3.66793 8.83846 4.1707 8.51851 4.62776C8.21 5.08483 7.77007 5.43334 7.19875 5.6733V5.70758ZM1.62829 1.37119V5.19338H5.12482C5.83327 5.19338 6.38174 5.02769 6.77025 4.69632C7.17018 4.35353 7.37014 3.87361 7.37014 3.25657C7.37014 1.99965 6.64456 1.37119 5.19338 1.37119H1.62829ZM5.55332 10.7296C6.25034 10.7296 6.81024 10.541 7.23302 10.1639C7.66723 9.77544 7.88434 9.24982 7.88434 8.58707C7.88434 7.98147 7.66152 7.49584 7.21588 7.13019C6.78167 6.75311 6.21035 6.56457 5.5019 6.56457H1.62829V10.7296H5.55332Z" fill="#BBBBBB"/>
</svg>
