<svg width="73" height="24" viewBox="0 0 73 24" fill="none" xmlns="http://www.w3.org/2000/svg">
<path d="M26.7108 23.4603H20.0095V21.7879H18.337V20.1154H16.6646V16.759H18.337V15.0866H21.6819V13.4141H28.3947V11.7302H26.7108V10.0577H21.6819V11.7302H16.6646V10.0577H18.337V8.38523H20.0095V6.71277H28.3947V8.38523H30.0672V10.0577H31.7397V23.4603H28.3947V21.7879H26.7108V23.4603ZM20.8457 20.1154H26.7108V18.4429H28.3947V15.0866H26.7108V16.759H20.8457V20.1154Z" fill="#BBBBBB"/>
<path d="M61.7072 23.4603H53.322V21.7879H51.6495V20.1154H49.9771V18.4429H54.9944V20.1154H60.8595V16.759H54.9944V15.0866H51.6495V13.4141H49.9771V10.0577H51.6495V8.38523H53.322V6.71277H61.7072V8.38523H63.3797V10.0577H65.0522V11.7302H60.0233V10.0577H54.1582V13.4141H60.0233V15.0866H63.3797V16.759H65.0522V20.1154H63.3797V21.7879H61.7072V23.4603Z" fill="#BBBBBB"/>
<path d="M36.6106 23.4603H33.2656V0H36.6106V8.38524H38.283V6.71277H44.9958V8.38524H46.6683V10.0577H48.3407V20.1154H46.6683V21.7879H44.9958V23.4603H38.283V21.7879H36.6106V23.4603ZM38.283 20.1154H43.3119V18.4429H44.9958V11.7302H43.3119V10.0577H38.283V11.7302H36.6106V18.4429H38.283V20.1154Z" fill="#BBBBBB"/>
<path d="M4.35254 19.4264H0V0.285767H4.35254V19.4264ZM15.0527 19.4293V23.192H4.37207V19.4293H15.0527Z" fill="#BBBBBB"/>
<path d="M69.7108 23.2684C68.2534 23.2684 67.187 22.1665 67.187 20.7684C67.187 19.3821 68.2534 18.2683 69.6871 18.2683C71.1918 18.2683 72.2463 19.3702 72.2463 20.7565C72.2463 22.1191 71.2037 23.2684 69.7108 23.2684ZM67.8031 20.7684C67.8031 21.8584 68.597 22.6997 69.7108 22.6997C70.8601 22.6997 71.6302 21.8821 71.6302 20.7565C71.6302 19.6309 70.8482 18.8489 69.6871 18.8489C68.597 18.8489 67.8031 19.6546 67.8031 20.7684ZM68.7392 22.0361V19.4769H69.9122C70.4454 19.4769 70.7534 19.7731 70.7534 20.1404C70.7534 20.484 70.4928 20.6617 70.2321 20.6736V20.875C70.5283 20.875 70.7416 21.1001 70.7416 21.3845V22.0361H70.161V21.5267C70.161 21.3015 70.0188 21.1831 69.7581 21.1831H69.3197V22.0361H68.7392ZM69.3197 20.6854H69.7581C70.0188 20.6854 70.1491 20.4958 70.1491 20.3181C70.1491 20.1285 70.0188 19.9627 69.7581 19.9627H69.3197V20.6854Z" fill="#BBBBBB"/>
</svg>
